<svg xmlns="http://www.w3.org/2000/svg" width="48" height="48" viewBox="0 0 48 48" fill="none">
  <path d="M12.6 23.2a2.4 2.4 0 0 1 2.264-1.616h18.272a2.4 2.4 0 0 1 2.264 1.616l2.367 7.102c.08.242.121.496.121.75v4.148A2.4 2.4 0 0 1 35.488 37h-1.08a1.2 1.2 0 0 1-1.2-1.2v-.96H14.792v.96a1.2 1.2 0 0 1-1.2 1.2h-1.08a2.4 2.4 0 0 1-2.4-2.4v-4.148c0-.254.041-.508.121-.75l2.367-7.102Z" fill="#fff"/>
  <path d="M16.08 20.56 17.92 15.52h12.16l1.84 5.04H16.08Z" fill="#7FC8F8"/>
  <path d="M19.2 14.08c0-.796.645-1.44 1.44-1.44h6.72c.795 0 1.44.644 1.44 1.44v1.44H19.2v-1.44Z" fill="#102542"/>
  <circle cx="18.72" cy="30.76" r="2.76" fill="#102542"/>
  <circle cx="29.28" cy="30.76" r="2.76" fill="#102542"/>
  <path d="M12.6 23.2a2.4 2.4 0 0 1 2.264-1.616h18.272a2.4 2.4 0 0 1 2.264 1.616l2.367 7.102c.08.242.121.496.121.75v1.028H10.112v-1.028c0-.254.041-.508.121-.75l2.367-7.102Z" stroke="#102542" stroke-width="1.6" stroke-linejoin="round"/>
  <path d="M16.08 20.56 17.92 15.52h12.16l1.84 5.04H16.08Z" stroke="#102542" stroke-width="1.6" stroke-linejoin="round"/>
  <path d="M19.2 15.52v-1.44c0-.796.645-1.44 1.44-1.44h6.72c.795 0 1.44.644 1.44 1.44v1.44" stroke="#102542" stroke-width="1.6" stroke-linecap="round"/>
</svg>
